<svg width="139" height="177" viewBox="0 0 139 177" fill="none" xmlns="http://www.w3.org/2000/svg">
<path fill-rule="evenodd" clip-rule="evenodd" d="M21.3011 36.8129C25.972 34.9446 29.4333 33.6981 31.9226 32.9464C33.1677 32.5704 34.1459 32.3255 34.8962 32.187C34.956 32.1759 35.0138 32.1657 35.0696 32.1562C34.698 32.5937 34.1956 33.1243 33.5616 33.742C32.0241 35.2403 30.0176 36.97 27.9795 38.727C26.907 39.6515 25.8258 40.5836 24.7996 41.4934C24.6018 41.6687 24.4062 41.8432 24.2131 42.0166C22.3571 41.6439 20.7969 41.242 19.5679 40.8157C17.9237 40.2453 17.1585 39.7241 16.9169 39.4089L16.9096 39.3993C16.9412 39.3428 17.0083 39.2437 17.1471 39.1024C17.7184 38.5206 18.9908 37.737 21.3011 36.8129ZM36.3796 32.0694C36.3795 32.0695 36.3759 32.0687 36.3693 32.0669C36.3765 32.0684 36.3798 32.0693 36.3796 32.0694ZM35.8051 31.0987C35.8093 31.0797 35.8133 31.0694 35.8142 31.069C35.8151 31.0686 35.813 31.0781 35.8051 31.0987ZM29.8314 41.0922C29.2115 41.6268 28.5961 42.1575 28.0009 42.6755L25.1295 45.2433C24.3896 45.9333 23.7471 46.5667 23.2395 47.1241C22.8075 47.5985 22.5148 47.9731 22.3452 48.2477C22.2533 48.3965 22.2263 48.4698 22.2224 48.4812C22.2264 48.4681 22.2513 48.3742 22.2308 48.2211L19.2573 48.6193C19.15 47.8177 19.5285 47.0993 19.7928 46.6713C20.1039 46.1676 20.5374 45.6357 21.0214 45.1041C21.1968 44.9116 21.3842 44.7132 21.5822 44.5098C20.4713 44.2421 19.4666 43.9559 18.5847 43.65C16.8993 43.0653 15.3628 42.3126 14.536 41.2342C14.0748 40.6326 13.7935 39.8732 13.9157 39.0191C14.0311 38.2121 14.4765 37.5403 15.0065 37.0005C16.0392 35.9488 17.8097 34.9784 20.187 34.0275C24.891 32.1459 28.4446 30.8628 31.0554 30.0745C32.3603 29.6804 33.4535 29.4026 34.3517 29.2368C35.2255 29.0755 36.015 29.0004 36.6701 29.0796C37.28 29.1533 38.2508 29.4346 38.6494 30.4428C38.9947 31.3162 38.6455 32.1505 38.4153 32.5935C37.9018 33.5817 36.8315 34.7445 35.6553 35.8906C34.0556 37.4495 31.9174 39.2933 29.8314 41.0922L29.8314 41.0922ZM22.2224 48.4812L25.1295 45.2433L25.2479 45.2644C25.2979 45.2732 25.348 45.2821 25.3983 45.2909L22.2219 48.4828C22.2219 48.4828 22.222 48.4827 22.2221 48.4824C22.2221 48.4821 22.2223 48.4817 22.2224 48.4812ZM25.3983 45.2909L28.0009 42.6755C38.3404 44.2422 54.0044 45.0117 69.7413 44.9827C84.4064 44.9556 99.0102 44.2353 109.301 42.8527C107.235 41.0936 105.16 39.2076 103.581 37.5018C102.399 36.2252 101.351 34.9017 100.874 33.725C100.638 33.1417 100.44 32.3503 100.701 31.547C100.995 30.6389 101.729 30.1319 102.484 29.9002C103.193 29.6827 104.04 29.6598 104.953 29.7415C105.889 29.8253 107.013 30.0311 108.338 30.3598C110.99 31.0174 114.572 32.1987 119.285 34.0212C121.66 34.9397 123.433 35.8816 124.468 36.9102C125 37.4379 125.454 38.1032 125.572 38.9113C125.697 39.7684 125.408 40.5262 124.945 41.1201C124.118 42.1825 122.584 42.9269 120.901 43.5079C119.625 43.9484 118.092 44.3497 116.351 44.7154C117.018 45.2355 117.616 45.6946 118.114 46.0726C118.586 46.4313 118.966 46.7168 119.228 46.9122C119.359 47.0099 119.461 47.085 119.529 47.1354L119.606 47.1923L119.625 47.2064L119.63 47.2097L119.631 47.2105C119.631 47.2106 119.631 47.2106 118.744 48.4202C117.857 49.6298 117.857 49.6296 117.856 49.6293L117.855 49.6282L117.849 49.624L117.828 49.6083L117.746 49.5481C117.675 49.4954 117.57 49.4178 117.436 49.3176C117.167 49.1172 116.779 48.8261 116.298 48.4611C115.338 47.7315 114.009 46.7056 112.532 45.5197L112.42 45.4297C101.843 47.1023 85.7584 47.9531 69.7468 47.9827C52.8671 48.0138 35.9039 47.1326 25.3983 45.2909ZM113.715 42.1702C113.565 42.1969 113.414 42.2235 113.261 42.2498C110.622 40.0904 107.755 37.594 105.782 35.4636C104.688 34.2819 103.994 33.3427 103.704 32.7112C103.927 32.6923 104.246 32.6902 104.685 32.7296C105.415 32.7949 106.378 32.9646 107.616 33.2716C110.092 33.8856 113.541 35.0167 118.203 36.8193C120.515 37.7133 121.786 38.4745 122.354 39.0388C122.468 39.1522 122.532 39.2363 122.567 39.2905C122.315 39.6016 121.546 40.1116 119.922 40.6721C118.361 41.2111 116.268 41.7138 113.715 42.1702ZM126.663 74.9602L126.663 74.9602C127.158 76.3469 127.646 77.7153 128.124 79.0636C131.113 87.4993 133.674 95.1156 134.918 101.639C136.168 108.201 136.016 113.336 133.937 117.01C131.921 120.571 127.86 123.143 120.299 124.048H17.493C10.7605 123.085 7.06978 120.562 5.18396 117.033C3.22859 113.375 3.01006 108.283 4.07684 101.784C5.13767 95.3223 7.41728 87.7511 10.1545 79.3082C10.8047 77.3028 11.4803 75.2492 12.17 73.153L12.17 73.1529C14.3712 66.4625 16.715 59.3384 18.8293 51.9611L15.9454 51.1345C13.8487 58.4505 11.5303 65.4974 9.33271 72.1771C8.6398 74.2833 7.95889 76.3529 7.30073 78.383C4.56696 86.8152 2.21854 94.585 1.11646 101.298C0.0203208 107.976 0.104013 113.893 2.53816 118.447C5.03232 123.114 9.79056 125.998 17.1793 127.033L17.2829 127.048H17.3874H120.387H120.475L120.563 127.038C128.686 126.083 133.87 123.219 136.548 118.487C139.17 113.854 139.149 107.82 137.864 101.077C136.572 94.296 133.932 86.4724 130.952 78.0618C130.47 76.7018 129.979 75.3255 129.482 73.9342L129.482 73.933L129.482 73.9324C126.895 66.6817 124.162 59.0223 121.826 51.1224L118.949 51.9732C121.311 59.96 124.076 67.7098 126.663 74.9602Z" fill="black" fill-opacity="0.37"/>
<path fill-rule="evenodd" clip-rule="evenodd" d="M69.2406 3.14774C71.8578 2.60873 74.4078 3.56737 76.9609 5.98568C79.5368 8.42552 81.9604 12.2227 84.1685 16.9345C88.2691 25.6848 91.453 37.2082 93.5434 47.8848C92.2623 48.3848 91.3873 49.3897 91.3873 50.5478C91.3873 52.2046 93.1782 53.5478 95.3873 53.5478C97.5965 53.5478 99.3873 52.2046 99.3873 50.5478C99.3873 49.1968 98.1968 48.0545 96.5596 47.6787C94.4459 36.7726 91.1773 24.8206 86.885 15.6615C84.6084 10.8033 81.9934 6.62029 79.024 3.80764C76.0318 0.973461 72.5298 -0.59263 68.6355 0.209408C63.9244 1.17965 59.2226 5.50867 54.4519 13.5254C49.9259 21.1311 45.166 32.3475 40.1935 48.0388C39.1056 48.575 38.3873 49.4985 38.3873 50.5478C38.3873 52.2046 40.1782 53.5478 42.3873 53.5478C44.5965 53.5478 46.3873 52.2046 46.3873 50.5478C46.3873 49.1707 45.1502 48.0103 43.4641 47.6577C48.2517 32.7536 52.7904 22.1839 57.03 15.0596C61.7102 7.19482 65.8368 3.84875 69.2406 3.14774Z" fill="black" fill-opacity="0.37"/>
<path d="M60.6088 97.0918C59.9688 96.9638 59.2648 96.7078 58.4968 96.3238C57.7288 95.9398 57.0248 95.4491 56.3848 94.8518C55.7448 94.2971 55.2755 93.7211 54.9768 93.1238C53.9102 90.9478 53.3128 88.6438 53.1848 86.2118C53.0995 83.7371 53.4195 80.7504 54.1448 77.2518C54.3582 76.5264 54.6355 75.5451 54.9768 74.3078C55.3608 73.0704 55.7662 71.8331 56.1928 70.5958C56.6195 69.3584 57.0035 68.3131 57.3448 67.4598C57.6862 66.6064 57.8995 66.1798 57.9848 66.1798C58.1128 66.0518 58.1768 65.6891 58.1768 65.0918C58.1768 64.8784 58.3475 64.4304 58.6888 63.7478C59.0728 63.0224 59.5422 62.2118 60.0968 61.3158C60.6942 60.4198 61.2915 59.5664 61.8888 58.7558C62.5288 57.9024 63.1262 57.2411 63.6808 56.7718C64.5342 55.6624 65.4942 54.7238 66.5608 53.9558C67.6702 53.1451 68.7582 52.4624 69.8248 51.9078C70.0808 51.7371 70.4435 51.5451 70.9128 51.3318C71.4248 51.1184 71.9795 50.9264 72.5768 50.7558C73.1742 50.5851 73.7075 50.4784 74.1768 50.4358C76.3102 50.3078 77.9102 50.5638 78.9768 51.2038C80.0435 51.8438 80.9822 52.9958 81.7928 54.6598C82.6462 55.5984 83.1155 56.4944 83.2008 57.3478C83.2862 58.2011 83.4142 59.2464 83.5848 60.4838C83.5848 61.6358 83.4568 63.0011 83.2008 64.5798C82.9875 66.1158 82.6888 67.6518 82.3048 69.1878C81.9208 70.6811 81.4942 71.9398 81.0248 72.9638C80.5555 73.9451 80.1075 74.4358 79.6808 74.4358C79.6808 74.4358 79.6168 74.4571 79.4888 74.4998C79.3608 74.4998 79.2968 74.6064 79.2968 74.8198C79.3822 75.1184 79.2968 75.8011 79.0408 76.8678C78.7848 77.8918 78.3368 79.0224 77.6968 80.2598C76.3315 84.0998 74.7102 87.3211 72.8328 89.9238C70.9982 92.4838 69.0355 94.3824 66.9448 95.6198C64.8542 96.8571 62.7422 97.3478 60.6088 97.0918ZM73.7928 100.612C73.1102 100.654 72.4275 100.398 71.7448 99.8438C71.0622 99.3318 70.6355 98.7984 70.4648 98.2438C70.1662 97.9878 70.0168 97.7318 70.0168 97.4758C70.0168 97.2624 69.9742 97.1131 69.8888 97.0278C69.7182 96.9424 69.4835 96.7078 69.1848 96.3238C68.8862 95.9824 68.6728 95.5771 68.5448 95.1078C68.2462 94.5104 67.7982 93.6571 67.2008 92.5478C66.6462 91.3958 66.0488 90.2224 65.4088 89.0278C64.7688 87.7904 64.1928 86.7238 63.6808 85.8278C63.2115 84.8891 62.9342 84.3558 62.8488 84.2278C62.5075 83.8864 62.5502 83.4598 62.9768 82.9478C63.1902 82.4358 63.4248 82.1371 63.6808 82.0518C63.9795 81.9664 64.5342 82.0304 65.3448 82.2438C66.3262 82.2438 67.2222 83.2678 68.0328 85.3158C68.0755 85.5291 68.2675 86.0411 68.6088 86.8518C68.9502 87.6624 69.3342 88.4731 69.7608 89.2838C70.1875 90.0518 70.5288 90.5424 70.7848 90.7558C70.9982 91.2251 71.2328 91.7584 71.4888 92.3558C71.7448 92.9531 72.0222 93.4438 72.3208 93.8278C72.4488 94.2971 72.7262 94.8091 73.1528 95.3638C73.5795 95.9184 73.8782 96.4944 74.0488 97.0918C75.0302 98.6278 75.4995 99.6091 75.4568 100.036C75.4568 100.462 74.9022 100.654 73.7928 100.612ZM61.1208 93.3798C62.9128 93.1664 64.6835 92.1638 66.4328 90.3718C68.2248 88.5371 69.9102 86.1478 71.4888 83.2038C73.1102 80.2171 74.5608 76.9104 75.8408 73.2838C76.2248 72.2171 76.6942 71.0438 77.2488 69.7638C77.8035 68.4411 78.2942 66.9904 78.7208 65.4118C79.1475 63.8331 79.3608 62.1691 79.3608 60.4198C79.6168 58.5424 79.5528 57.1558 79.1688 56.2598C78.7848 55.3638 78.0808 54.6811 77.0568 54.2118C75.6915 53.6998 74.1768 53.8064 72.5128 54.5318C70.8915 55.2144 69.2915 56.4731 67.7128 58.3078C66.1342 60.1424 64.7262 62.5531 63.4888 65.5398C61.7395 69.2518 60.3528 72.5798 59.3288 75.5238C58.3048 78.4678 57.6435 81.1131 57.3448 83.4598C57.0462 85.8064 57.1102 87.9398 57.5368 89.8598C57.6222 91.1824 57.9635 92.1638 58.5608 92.8038C59.2008 93.4864 60.0542 93.6784 61.1208 93.3798Z" fill="black" fill-opacity="0.4"/>
</svg>
