<svg width="159" height="177" viewBox="0 0 159 177" fill="none" xmlns="http://www.w3.org/2000/svg">
<g filter="url(#filter0_d_6_126)">
<path d="M155 49.5478C155 100.548 118 113.048 83.7487 120.548C49.4975 128.048 4 128.789 4 94.5478C4 60.3061 50 26.5478 83.7487 17.5478C117.497 8.54776 155 15.3061 155 49.5478Z" fill="url(#paint0_linear_6_126)"/>
<path d="M155 49.5478C155 100.548 118 113.048 83.7487 120.548C49.4975 128.048 4 128.789 4 94.5478C4 60.3061 50 26.5478 83.7487 17.5478C117.497 8.54776 155 15.3061 155 49.5478Z" fill="url(#paint1_linear_6_126)"/>
</g>
<path fill-rule="evenodd" clip-rule="evenodd" d="M31.3011 36.8129C35.972 34.9446 39.4333 33.6981 41.9226 32.9464C43.1677 32.5704 44.1459 32.3255 44.8962 32.187C44.956 32.1759 45.0138 32.1657 45.0696 32.1562C44.698 32.5937 44.1956 33.1243 43.5616 33.742C42.0241 35.2403 40.0176 36.97 37.9795 38.727C36.907 39.6515 35.8258 40.5836 34.7996 41.4934C34.6018 41.6687 34.4062 41.8432 34.2131 42.0166C32.3571 41.6439 30.7969 41.242 29.5679 40.8157C27.9237 40.2453 27.1585 39.7241 26.9169 39.4089L26.9096 39.3993C26.9412 39.3428 27.0083 39.2437 27.1471 39.1024C27.7184 38.5206 28.9908 37.737 31.3011 36.8129ZM46.3796 32.0694C46.3795 32.0695 46.3759 32.0687 46.3693 32.0669C46.3765 32.0684 46.3798 32.0693 46.3796 32.0694ZM45.8051 31.0987C45.8093 31.0797 45.8133 31.0694 45.8142 31.069C45.8151 31.0686 45.813 31.0781 45.8051 31.0987ZM39.8314 41.0922C39.2115 41.6268 38.5961 42.1575 38.0009 42.6755L35.1295 45.2433C34.3896 45.9333 33.7471 46.5667 33.2395 47.1241C32.8075 47.5985 32.5148 47.9731 32.3452 48.2477C32.2533 48.3965 32.2263 48.4698 32.2224 48.4812C32.2264 48.4681 32.2513 48.3742 32.2308 48.2211L29.2573 48.6193C29.15 47.8177 29.5285 47.0993 29.7928 46.6713C30.1039 46.1676 30.5374 45.6357 31.0214 45.1041C31.1968 44.9116 31.3842 44.7132 31.5822 44.5098C30.4713 44.2421 29.4666 43.9559 28.5847 43.65C26.8993 43.0653 25.3628 42.3126 24.536 41.2342C24.0748 40.6326 23.7935 39.8732 23.9157 39.0191C24.0311 38.2121 24.4765 37.5403 25.0065 37.0005C26.0392 35.9488 27.8097 34.9784 30.187 34.0275C34.891 32.1459 38.4446 30.8628 41.0554 30.0745C42.3603 29.6804 43.4535 29.4026 44.3517 29.2368C45.2255 29.0755 46.015 29.0004 46.6701 29.0796C47.28 29.1533 48.2508 29.4346 48.6494 30.4428C48.9947 31.3162 48.6455 32.1505 48.4153 32.5935C47.9018 33.5817 46.8315 34.7445 45.6553 35.8906C44.0556 37.4495 41.9174 39.2933 39.8314 41.0922L39.8314 41.0922ZM32.2224 48.4812L35.1295 45.2433L35.2479 45.2644C35.2979 45.2732 35.348 45.2821 35.3983 45.2909L32.2219 48.4828C32.2219 48.4828 32.222 48.4827 32.2221 48.4824C32.2221 48.4821 32.2223 48.4817 32.2224 48.4812ZM35.3983 45.2909L38.0009 42.6755C48.3404 44.2422 64.0044 45.0117 79.7413 44.9827C94.4064 44.9556 109.01 44.2353 119.301 42.8527C117.235 41.0936 115.16 39.2076 113.581 37.5018C112.399 36.2252 111.351 34.9017 110.874 33.725C110.638 33.1417 110.44 32.3503 110.701 31.547C110.995 30.6389 111.729 30.1319 112.484 29.9002C113.193 29.6827 114.04 29.6598 114.953 29.7415C115.889 29.8253 117.013 30.0311 118.338 30.3598C120.99 31.0174 124.572 32.1987 129.285 34.0212C131.66 34.9397 133.433 35.8816 134.468 36.9102C135 37.4379 135.454 38.1032 135.572 38.9113C135.697 39.7684 135.408 40.5262 134.945 41.1201C134.118 42.1825 132.584 42.9269 130.901 43.5079C129.625 43.9484 128.092 44.3497 126.351 44.7154C127.018 45.2355 127.616 45.6946 128.114 46.0726C128.586 46.4313 128.966 46.7168 129.228 46.9122C129.359 47.0099 129.461 47.085 129.529 47.1354L129.606 47.1923L129.625 47.2064L129.63 47.2097L129.631 47.2105C129.631 47.2106 129.631 47.2106 128.744 48.4202C127.857 49.6298 127.857 49.6296 127.856 49.6293L127.855 49.6282L127.849 49.624L127.828 49.6083L127.746 49.5481C127.675 49.4954 127.57 49.4178 127.436 49.3176C127.167 49.1172 126.779 48.8261 126.298 48.4611C125.338 47.7315 124.009 46.7056 122.532 45.5197L122.42 45.4297C111.843 47.1023 95.7584 47.9531 79.7468 47.9827C62.8671 48.0138 45.9039 47.1326 35.3983 45.2909ZM123.715 42.1702C123.565 42.1969 123.414 42.2235 123.261 42.2498C120.622 40.0904 117.755 37.594 115.782 35.4636C114.688 34.2819 113.994 33.3427 113.704 32.7112C113.927 32.6923 114.246 32.6902 114.685 32.7296C115.415 32.7949 116.378 32.9646 117.616 33.2716C120.092 33.8856 123.541 35.0167 128.203 36.8193C130.515 37.7133 131.786 38.4745 132.354 39.0388C132.468 39.1522 132.532 39.2363 132.567 39.2905C132.315 39.6016 131.546 40.1116 129.922 40.6721C128.361 41.2111 126.268 41.7138 123.715 42.1702ZM136.663 74.9602L136.663 74.9602C137.158 76.3469 137.646 77.7153 138.124 79.0636C141.113 87.4993 143.674 95.1156 144.918 101.639C146.168 108.201 146.016 113.336 143.937 117.01C141.921 120.571 137.86 123.143 130.299 124.048H27.493C20.7605 123.085 17.0698 120.562 15.184 117.033C13.2286 113.375 13.0101 108.283 14.0768 101.784C15.1377 95.3223 17.4173 87.7511 20.1545 79.3082C20.8047 77.3028 21.4803 75.2492 22.17 73.153L22.17 73.1529C24.3712 66.4625 26.715 59.3384 28.8293 51.9611L25.9454 51.1345C23.8487 58.4505 21.5303 65.4974 19.3327 72.1771C18.6398 74.2833 17.9589 76.3529 17.3007 78.383C14.567 86.8152 12.2185 94.585 11.1165 101.298C10.0203 107.976 10.104 113.893 12.5382 118.447C15.0323 123.114 19.7906 125.998 27.1793 127.033L27.2829 127.048H27.3874H130.387H130.475L130.563 127.038C138.686 126.083 143.87 123.219 146.548 118.487C149.17 113.854 149.149 107.82 147.864 101.077C146.572 94.296 143.932 86.4724 140.952 78.0618C140.47 76.7018 139.979 75.3255 139.482 73.9342L139.482 73.933L139.482 73.9324C136.895 66.6817 134.162 59.0223 131.826 51.1224L128.949 51.9732C131.311 59.96 134.076 67.7098 136.663 74.9602Z" fill="black" fill-opacity="0.37"/>
<path fill-rule="evenodd" clip-rule="evenodd" d="M79.2406 3.14774C81.8578 2.60873 84.4078 3.56738 86.9609 5.98568C89.5368 8.42552 91.9604 12.2227 94.1685 16.9345C98.2691 25.6848 101.453 37.2082 103.543 47.8848C102.262 48.3848 101.387 49.3897 101.387 50.5478C101.387 52.2046 103.178 53.5478 105.387 53.5478C107.596 53.5478 109.387 52.2046 109.387 50.5478C109.387 49.1968 108.197 48.0545 106.56 47.6787C104.446 36.7726 101.177 24.8206 96.885 15.6615C94.6084 10.8033 91.9934 6.6203 89.024 3.80764C86.0318 0.973463 82.5298 -0.592628 78.6355 0.20941C73.9244 1.17965 69.2226 5.50867 64.4519 13.5255C59.9259 21.1311 55.166 32.3475 50.1935 48.0388C49.1056 48.575 48.3873 49.4985 48.3873 50.5478C48.3873 52.2046 50.1782 53.5478 52.3873 53.5478C54.5965 53.5478 56.3873 52.2046 56.3873 50.5478C56.3873 49.1707 55.1502 48.0103 53.4641 47.6577C58.2517 32.7536 62.7904 22.1839 67.03 15.0596C71.7102 7.19482 75.8368 3.84875 79.2406 3.14774Z" fill="black" fill-opacity="0.37"/>
<path d="M70.6088 97.0918C69.9688 96.9638 69.2648 96.7078 68.4968 96.3238C67.7288 95.9398 67.0248 95.4491 66.3848 94.8518C65.7448 94.2971 65.2755 93.7211 64.9768 93.1238C63.9102 90.9478 63.3128 88.6438 63.1848 86.2118C63.0995 83.7371 63.4195 80.7504 64.1448 77.2518C64.3582 76.5264 64.6355 75.5451 64.9768 74.3078C65.3608 73.0704 65.7662 71.8331 66.1928 70.5958C66.6195 69.3584 67.0035 68.3131 67.3448 67.4598C67.6862 66.6064 67.8995 66.1798 67.9848 66.1798C68.1128 66.0518 68.1768 65.6891 68.1768 65.0918C68.1768 64.8784 68.3475 64.4304 68.6888 63.7478C69.0728 63.0224 69.5422 62.2118 70.0968 61.3158C70.6942 60.4198 71.2915 59.5664 71.8888 58.7558C72.5288 57.9024 73.1262 57.2411 73.6808 56.7718C74.5342 55.6624 75.4942 54.7238 76.5608 53.9558C77.6702 53.1451 78.7582 52.4624 79.8248 51.9078C80.0808 51.7371 80.4435 51.5451 80.9128 51.3318C81.4248 51.1184 81.9795 50.9264 82.5768 50.7558C83.1742 50.5851 83.7075 50.4784 84.1768 50.4358C86.3102 50.3078 87.9102 50.5638 88.9768 51.2038C90.0435 51.8438 90.9822 52.9958 91.7928 54.6598C92.6462 55.5984 93.1155 56.4944 93.2008 57.3478C93.2862 58.2011 93.4142 59.2464 93.5848 60.4838C93.5848 61.6358 93.4568 63.0011 93.2008 64.5798C92.9875 66.1158 92.6888 67.6518 92.3048 69.1878C91.9208 70.6811 91.4942 71.9398 91.0248 72.9638C90.5555 73.9451 90.1075 74.4358 89.6808 74.4358C89.6808 74.4358 89.6168 74.4571 89.4888 74.4998C89.3608 74.4998 89.2968 74.6064 89.2968 74.8198C89.3822 75.1184 89.2968 75.8011 89.0408 76.8678C88.7848 77.8918 88.3368 79.0224 87.6968 80.2598C86.3315 84.0998 84.7102 87.3211 82.8328 89.9238C80.9982 92.4838 79.0355 94.3824 76.9448 95.6198C74.8542 96.8571 72.7422 97.3478 70.6088 97.0918ZM83.7928 100.612C83.1102 100.654 82.4275 100.398 81.7448 99.8438C81.0622 99.3318 80.6355 98.7984 80.4648 98.2438C80.1662 97.9878 80.0168 97.7318 80.0168 97.4758C80.0168 97.2624 79.9742 97.1131 79.8888 97.0278C79.7182 96.9424 79.4835 96.7078 79.1848 96.3238C78.8862 95.9824 78.6728 95.5771 78.5448 95.1078C78.2462 94.5104 77.7982 93.6571 77.2008 92.5478C76.6462 91.3958 76.0488 90.2224 75.4088 89.0278C74.7688 87.7904 74.1928 86.7238 73.6808 85.8278C73.2115 84.8891 72.9342 84.3558 72.8488 84.2278C72.5075 83.8864 72.5502 83.4598 72.9768 82.9478C73.1902 82.4358 73.4248 82.1371 73.6808 82.0518C73.9795 81.9664 74.5342 82.0304 75.3448 82.2438C76.3262 82.2438 77.2222 83.2678 78.0328 85.3158C78.0755 85.5291 78.2675 86.0411 78.6088 86.8518C78.9502 87.6624 79.3342 88.4731 79.7608 89.2838C80.1875 90.0518 80.5288 90.5424 80.7848 90.7558C80.9982 91.2251 81.2328 91.7584 81.4888 92.3558C81.7448 92.9531 82.0222 93.4438 82.3208 93.8278C82.4488 94.2971 82.7262 94.8091 83.1528 95.3638C83.5795 95.9184 83.8782 96.4944 84.0488 97.0918C85.0302 98.6278 85.4995 99.6091 85.4568 100.036C85.4568 100.462 84.9022 100.654 83.7928 100.612ZM71.1208 93.3798C72.9128 93.1664 74.6835 92.1638 76.4328 90.3718C78.2248 88.5371 79.9102 86.1478 81.4888 83.2038C83.1102 80.2171 84.5608 76.9104 85.8408 73.2838C86.2248 72.2171 86.6942 71.0438 87.2488 69.7638C87.8035 68.4411 88.2942 66.9904 88.7208 65.4118C89.1475 63.8331 89.3608 62.1691 89.3608 60.4198C89.6168 58.5424 89.5528 57.1558 89.1688 56.2598C88.7848 55.3638 88.0808 54.6811 87.0568 54.2118C85.6915 53.6998 84.1768 53.8064 82.5128 54.5318C80.8915 55.2144 79.2915 56.4731 77.7128 58.3078C76.1342 60.1424 74.7262 62.5531 73.4888 65.5398C71.7395 69.2518 70.3528 72.5798 69.3288 75.5238C68.3048 78.4678 67.6435 81.1131 67.3448 83.4598C67.0462 85.8064 67.1102 87.9398 67.5368 89.8598C67.6222 91.1824 67.9635 92.1638 68.5608 92.8038C69.2008 93.4864 70.0542 93.6784 71.1208 93.3798Z" fill="black" fill-opacity="0.4"/>
<defs>
<filter id="filter0_d_6_126" x="0" y="13.9296" width="159" height="118.821" filterUnits="userSpaceOnUse" color-interpolation-filters="sRGB">
<feFlood flood-opacity="0" result="BackgroundImageFix"/>
<feColorMatrix in="SourceAlpha" type="matrix" values="0 0 0 0 0 0 0 0 0 0 0 0 0 0 0 0 0 0 127 0" result="hardAlpha"/>
<feOffset dy="4"/>
<feGaussianBlur stdDeviation="2"/>
<feComposite in2="hardAlpha" operator="out"/>
<feColorMatrix type="matrix" values="0 0 0 0 0.825 0 0 0 0 0.541406 0 0 0 0 0 0 0 0 0.14 0"/>
<feBlend mode="normal" in2="BackgroundImageFix" result="effect1_dropShadow_6_126"/>
<feBlend mode="normal" in="SourceGraphic" in2="effect1_dropShadow_6_126" result="shape"/>
</filter>
<linearGradient id="paint0_linear_6_126" x1="155" y1="13.9296" x2="32.4238" y2="183.189" gradientUnits="userSpaceOnUse">
<stop offset="0.227083" stop-color="#FDE3B0"/>
<stop offset="0.326042" stop-color="#FFDEA0"/>
<stop offset="0.419792" stop-color="#FFDC98"/>
<stop offset="0.508333" stop-color="#FFD483"/>
<stop offset="0.586458" stop-color="#FFCF74"/>
<stop offset="0.659375" stop-color="#FFCD6E"/>
<stop offset="0.773958" stop-color="#FFC351"/>
<stop offset="0.846875" stop-color="#FFCE71"/>
<stop offset="0.925" stop-color="#FFBC3B"/>
<stop offset="1" stop-color="#FFAE14"/>
</linearGradient>
<linearGradient id="paint1_linear_6_126" x1="155" y1="13.9296" x2="32.4238" y2="183.189" gradientUnits="userSpaceOnUse">
<stop offset="0.227083" stop-color="#FDE3B0"/>
<stop offset="0.326042" stop-color="#FFDEA0"/>
<stop offset="0.419792" stop-color="#FFDC98"/>
<stop offset="0.508333" stop-color="#FFD483"/>
<stop offset="0.586458" stop-color="#FFCF74"/>
<stop offset="0.659375" stop-color="#FFCD6E"/>
<stop offset="0.773958" stop-color="#FFC351"/>
<stop offset="0.846875" stop-color="#FFCE71"/>
<stop offset="0.925" stop-color="#FFBC3B"/>
<stop offset="1" stop-color="#FFAE14"/>
</linearGradient>
</defs>
</svg>
